<svg width="866" height="741" viewBox="0 0 866 741" fill="none" xmlns="http://www.w3.org/2000/svg">
<rect x="25.8218" y="37.4149" width="823" height="671" rx="8" fill="#620725"/>
<path d="M36.4066 703.531C33.5954 700.161 29.0907 692.286 26.5335 682.963C25.1181 677.803 25.6868 670.83 25.1194 647.019C24.6454 627.126 25.6698 591.353 26.5166 568.178C28.2169 521.639 34.1373 506.035 38.3626 485.45C44.9736 453.243 44.2984 440.53 45.1536 430.911C46.8993 411.276 45.4499 381.799 44.3153 371.935C42.3829 355.135 40.3694 344 39.5142 326.794C38.8497 313.425 37.5413 306.15 36.6945 285.151C35.961 266.958 36.4066 233.414 36.1272 213.626C35.7766 188.796 34.7131 179.713 34.4337 171.551C33.5939 147.019 31.9019 117.646 31.0467 101.55C29.5986 74.2944 30.1915 36.3074 31.8765 33.4877C35.7597 26.9897 48.7692 27.8229 75.1455 26.1379C95.2568 24.8531 133.851 25.0117 155.951 25.0032C182.528 24.993 196.07 26.1294 212.133 26.4088C219.259 26.5328 224.284 27.2471 247.273 27.535C270.263 27.8229 311.059 27.8229 333.752 28.1023C368.309 28.5278 382.965 30.6341 392.568 31.4893C413.946 33.3934 444.473 35.7146 465.879 37.1287C510.052 40.0468 532.536 42.4887 546.659 43.3439C565.307 44.473 579.988 45.8757 597.168 46.7309C601.448 46.9439 604.239 47.5692 630.268 47.8571C656.297 48.145 705.476 48.145 738.076 47.3067C770.676 46.4684 785.206 44.7918 799.119 43.9281C813.031 43.0644 825.884 43.0644 832.785 43.9027C839.686 44.741 840.245 46.4176 840.533 83.6069C840.821 120.796 840.821 193.448 840.542 232.271C840.262 271.095 839.703 273.889 839.416 316.684C839.128 359.479 839.128 442.19 839.407 485.916C839.687 529.642 840.245 531.878 840.533 555.663C840.821 579.448 840.821 624.715 840.542 648.873C840.243 674.72 839.128 684.259 837.731 696.952C835.512 717.103 791.76 708.036 765.138 710.288C743.593 712.111 705.544 712.541 684.011 713.396C662.478 714.251 658.566 714.81 633.358 715.098C608.151 715.386 561.766 715.386 536.194 715.106C510.622 714.827 507.269 714.268 483.746 713.98C460.223 713.692 416.632 713.692 391.661 713.972C366.691 714.251 361.661 714.81 345.657 715.098C329.654 715.386 302.829 715.386 285.377 714.827C250.285 713.703 238.001 710.881 224.436 710.026C210.27 709.133 197.899 707.494 167.492 706.639C150.429 706.159 135.815 704.107 121.7 703.252C108.095 702.427 95.7132 700.72 76.2802 699.865C66.9066 698.451 61.8261 697.892 57.0505 697.045C53.9513 696.757 49.4805 696.757 44.8742 696.757" stroke="#620725" stroke-width="50" stroke-linecap="round"/>
<path d="M43.7477 708.902C46.2055 709.718 51.9484 712.188 59.5686 712.811C63.1051 713.101 74.1175 713.843 80.5767 713.843C98.9789 713.843 44.9951 714.25 43.9577 714.664C38.1223 716.991 57.3085 709.322 65.3301 708.699C77.4347 707.758 97.2251 708.483 108.717 709.928C142.685 714.199 148.294 711.373 150.567 711.576C155.601 712.028 122.988 715.078 91.1919 712.002C84.9585 711.4 80.4779 711.373 79.3911 711.373C73.4612 711.373 92.7049 713.423 104.629 714.046C113.305 715.078 118.246 715.485 128.867 716.103C137.858 716.313 154.161 716.313 170.957 716.313" stroke="#620725" stroke-width="30" stroke-linecap="round"/>
</svg>
