<svg width="798" height="583" viewBox="0 0 798 583" fill="none" xmlns="http://www.w3.org/2000/svg">
<rect x="199.982" y="57.084" width="568" height="429" fill="#FCECD0"/>
<rect x="104.798" y="29.4545" width="630.16" height="503.139" transform="rotate(-0.271475 104.798 29.4545)" fill="#FCECD0"/>
<rect x="18.6837" y="53.4615" width="221.817" height="477.582" rx="49" transform="rotate(-1.66402 18.6837 53.4615)" fill="#FCECD0"/>
<path d="M552.051 262.531C553.35 268.63 566.374 283.412 586.061 308.313C605.498 332.897 617.619 350.396 620.019 353.229C624.777 358.845 628.098 364.811 632.919 371.152C636.832 376.301 644.231 390.964 652.586 401.319C654.838 404.11 669.952 419.78 692.243 442.287C705.34 455.512 713.327 465.778 718.829 472.586C723.859 479.367 729.958 488.076 734.352 494.667C735.231 495.985 736.096 497.283 738.3 501.244" stroke="#620725" stroke-width="30" stroke-linecap="round"/>
<path d="M41.834 74.9705C37.4794 76.7019 29.636 88.008 23.0517 104.862C18.9401 115.387 19.5366 128.274 18.4479 138.544C17.4087 148.348 16.9134 161.484 15.8247 175.663C12.9606 212.966 18.225 228.823 19.3136 240.398C21.0163 258.502 20.8482 271.634 21.9368 280.867C22.7605 287.854 24.3371 299.177 24.9994 311.677C25.481 320.765 27.4062 330.263 28.4949 341.811C31.3107 371.683 27.4062 383.121 26.3176 391.266C25.2437 399.3 24.783 411.556 22.6057 428.371C19.6498 451.199 24.3371 459.22 26.0881 468.205C27.4532 475.21 30.8951 480.232 33.7348 486.574C36.5068 492.765 38.7648 501.638 41.8209 507.783C44.863 513.9 53.1663 519.135 60.1703 523.312C68.5308 528.299 85.9041 532.697 95.1444 536.861C104.713 541.174 114.34 542.77 122.255 544.305C131.326 546.063 141.044 547.151 150.862 548.24C162.72 549.554 172.969 548.895 182.531 549.551C214.433 551.739 226.693 548.462 236.143 547.374C244.215 546.444 250.787 545.406 268.362 544.751C282.9 544.208 308.878 544.528 323.772 544.311C341.705 544.051 352.174 543.216 366.786 542.783C391.648 542.047 402.055 539.727 424.3 539.065C435.341 538.736 443.161 537.104 470.829 537.091C490.071 537.082 499.534 540.147 535.971 541.458C567.196 542.582 624.347 541.904 656.809 541.472C695.35 540.958 704.172 538.416 710.271 536.022C724.595 530.4 729.958 524.434 736.746 520.06C742.02 516.661 747.455 513.495 751.403 508.917C756.264 503.281 756.217 496.024 757.751 489.25C759.557 481.28 761.463 475.038 763.43 468.48C765.488 461.621 768.887 454.945 772.172 441.619C774.606 431.749 777.202 425.643 778.953 418.639C780.704 411.635 782.449 402.06 782.678 385.226C782.796 376.599 780.717 368.798 779.839 361.807C778.594 351.907 776.337 342.592 775.248 335.135C774.494 329.972 774.592 324.636 773.936 310.103C772.364 275.262 773.281 250.74 772.625 245.959C771.386 236.931 771.969 229.754 771.097 216.966C770.314 205.494 770.225 183.834 768.703 166.842C766.119 137.985 761.909 124.392 761.693 120.903C760.319 98.7656 759.732 63.1792 757.554 60.3461C752.366 53.5943 742.733 46.6135 735.696 41.9704C730.218 38.3555 723.033 35.2025 714.068 31.9169C706.647 29.1971 695.069 28.1985 684.78 27.5361C674.037 26.8446 661.833 25.5752 653.294 24.9129C649.537 24.6214 645.635 23.8177 630.669 22.3028C617.844 21.0045 594.495 17.758 577.477 16.1972C550.571 13.7296 536.784 15.5021 525.261 17.6793C489.855 24.3697 481.696 23.3717 474.909 24.0341C468.503 24.6591 461.576 25.5621 420.201 26.4343C381.43 27.2517 306.544 27.3066 267.103 27.746C227.663 28.1853 225.932 28.6182 218.98 28.8412C199.918 29.4526 185.692 29.497 174.195 30.1528C126.742 32.8598 119.691 31.6873 111.166 34.081C101.494 36.7967 93.459 37.7995 87.7601 39.5505C82.0731 41.2978 75.9621 43.9116 70.9255 46.5414C65.5759 49.3346 61.5344 55.2701 56.2814 59.4345C51.0284 63.5989 47.5264 67.0746 44.4703 72.3276C43.5915 73.6458 42.7259 74.9443 40.5224 77.5938" stroke="#620725" stroke-width="30" stroke-linecap="round"/>
<path d="M48.3921 69.7241C55.3174 77.961 79.7658 99.8125 91.4261 107.741C100.695 114.044 111.323 120.851 123.967 130.019C138.9 140.847 146.291 142.282 152.423 146.001C156.346 148.38 168.09 159.255 184.249 176.063C195.144 187.396 206.572 201.672 220.338 215.221C231.096 225.81 250.695 247.08 262.591 259.659C272.342 269.968 276.586 277.798 284.017 285.891C290.653 293.118 294.529 300.542 298.674 304.706C303.478 309.533 310.242 315.835 322.473 324.8C331.969 331.76 343.479 336.847 349.381 339.903C357.438 344.075 365.75 345.582 373.646 348.212C380.916 350.633 386.316 353.898 405.295 353.911C415.109 353.918 421.729 348.678 443.496 335.621C469.672 319.918 487.769 309.762 492.117 306.496C508.325 294.322 531.38 277.956 541.316 266.715C551.43 255.273 557.691 245.087 565.357 233.722C573.372 221.84 580.434 213.162 585.261 207.03C591.223 199.456 595.754 194.353 622.327 167.767C638.827 151.259 652.993 141.023 659.8 135.324C663.009 132.638 668.745 127.474 675.08 120.923C678.663 117.218 693.994 100.914 716.94 78.184C729.106 66.6812 732.608 61.8675 734.352 59.2509C735.231 57.9327 736.096 56.6342 736.988 55.2964" stroke="#620725" stroke-width="30" stroke-linecap="round"/>
<path d="M270.054 273.024C263.982 279.097 251.718 292.226 241.907 302.916C223.006 323.51 214.586 335.05 200.434 352.449C191.262 363.724 180.655 381.966 170.746 396.519C160.837 411.071 152.613 421.892 141.884 433.959C131.155 446.026 118.17 459.01 109.533 467.647C91.0379 486.142 83.8318 492.037 79.6674 497.073C74.2046 501.664 68.9581 506.911 65.9021 510.183C64.5774 511.724 63.7117 513.023 61.5082 514.361" stroke="#620725" stroke-width="30" stroke-linecap="round"/>
</svg>
